# xmcd
#
# Track frame offsets:
#	150
#	12588
#	21738
#	31881
#	40246
#	53107
#	66223
#	76505
#	86934
#	98176
#	109669
#	126774
#	137514
#	148897
#	161233
#	174040
#
# Disc length: 2455 seconds
#
# Revision: 1
# Processed by: cddbd v1.5.2PL0 Copyright (c) Steve Scherf et al.
# Submitted via: audiograbber 1.83.01
#
DISCID=d7099510
DTITLE=Charlie Rich - The Best Of CD2
DYEAR=2015
DGENRE=Country
TTITLE0=Behind Closed Doors
TTITLE1=Philadelphia Baby
TTITLE2=Everything I Do Is Wrong
TTITLE3=Rebound
TTITLE4=Apple Blossom Time
TTITLE5=Midnight Blues
TTITLE6=Come Back
TTITLE7=Just A Little Bit Sweet
TTITLE8=Breakup
TTITLE9=School Days
TTITLE10=My Elusive Dreams
TTITLE11=There Won't Be Anymore
TTITLE12=Rollin' Whit The Flow
TTITLE13=Who Will The Next Fool Be
TTITLE14=Good Time Charlie's Got The Blues
TTITLE15=Lonely Weekends
EXTD=
EXTT0=
EXTT1=
EXTT2=
EXTT3=
EXTT4=
EXTT5=
EXTT6=
EXTT7=
EXTT8=
EXTT9=
EXTT10=
EXTT11=
EXTT12=
EXTT13=
EXTT14=
EXTT15=
PLAYORDER=
